# xmcd
#
# Track frame offsets:
#	150
#	14793
#	31283
#	48490
#	63779
#	78518
#	94542
#	109130
#	130158
#	152151
#	170892
#	189018
#	205330
#	222077
#	241937
#	267639
#	287035
#
# Disc length: 4098 seconds
#
# Revision: 0
# Processed by: cddbd v1.4PL0 Copyright (c) Steve Scherf et al.
# Submitted via: EZCDDA 4.3.3.2
#
DISCID=f2100011
DTITLE=Jewel - 0304
DYEAR=1900
DGENRE=
TTITLE0=2 Become 1
TTITLE1=America
TTITLE2=Becoming
TTITLE3=Doin' Fine
TTITLE4=Fragile Heart
TTITLE5=Haunted
TTITLE6=Intuition
TTITLE7=Leave the Lights On
TTITLE8=Run 2 U
TTITLE9=Stand
TTITLE10=Sweet Temptation
TTITLE11=To Find You
TTITLE12=U and Me =Love
TTITLE13=Yes U Can
TTITLE14=Foolish Game
TTITLE15=Piece of You
TTITLE16=Standing Still
EXTD=
EXTT0=
EXTT1=
EXTT2=
EXTT3=
EXTT4=
EXTT5=
EXTT6=
EXTT7=
EXTT8=
EXTT9=
EXTT10=
EXTT11=
EXTT12=
EXTT13=
EXTT14=
EXTT15=
EXTT16=
PLAYORDER=
